<svg id="Layer_35" enable-background="new 0 0 64 64" height="512" viewBox="0 0 64 64" width="512" xmlns="http://www.w3.org/2000/svg"><path d="m20 2h24v40h-34v-30z" fill="#e6e9ed"/><path d="m20 10v2h-10l10-10z" fill="#b4dd7f"/><g fill="#fcd770"><path d="m40 14v16.83c0-.78-.32-1.49-.83-2s-1.22-.83-2-.83c-.41 0-.81.09-1.17.26v-14.26z"/><path d="m28 22h4v10h-4z"/><path d="m24 16v16h-2.68c-.33-.71-.78-1.35-1.32-1.9v-14.1z"/></g><path d="m7 62h-5v-10c0-5.18 3.95-9.45 9-9.95.03 2.19 1.81 3.95 4 3.95 2.21 0 4-1.79 4-4 0-.15-.01-.3-.02-.44 2.77-.52 5.32-1.86 7.32-3.86l5.7-5.7 3.17-3.17c.24-.24.52-.43.83-.57.36-.17.76-.26 1.17-.26.78 0 1.49.32 2 .83s.83 1.22.83 2c0 .75-.3 1.47-.83 2l-9.17 9.17-6.17 6.17c-.53.53-.83 1.25-.83 2v11.83z" fill="#4fc1e9"/><path d="m15 42c.65 0 1.28-.09 1.88-.26l1.5-.08c.2-.03.4-.06.6-.1.01.14.02.29.02.44 0 2.21-1.79 4-4 4-2.19 0-3.97-1.76-4-3.95.33-.03.66-.05 1-.05l1.87-.1c.36.07.74.1 1.13.1z" fill="#f0d0b4"/><path d="m21.32 32c.44.91.68 1.92.68 3 0 3.22-2.17 5.93-5.12 6.74l-3.01.16c-3.33-.53-5.87-3.42-5.87-6.9 0-1.92.76-3.64 2-4.9 1.27-1.3 3.04-2.1 5-2.1s3.73.8 5 2.1c.54.55.99 1.19 1.32 1.9z" fill="#f0d0b4"/><path d="m62 32v8h-10v-4-4z" fill="#fcd770"/><path d="m62 18v8h-10v-4-4z" fill="#fcd770"/><path d="m62 4v8h-10v-4-4z" fill="#fcd770"/><path d="m63 13v-10h-12v4h-4v14h-2v-20h-25.414l-10.586 10.586v18.14c-1.241 1.41-2 3.253-2 5.274 0 2.498 1.152 4.73 2.951 6.199-5.088.963-8.951 5.436-8.951 10.801v11h23v-12.829c0-.488.19-.947.536-1.293l5.878-5.878h14.586v-20h2v14h4v4h12v-10h-12v4h-2v-12h2v4h12v-10h-12v4h-2v-12h2v4zm-10-8h8v6h-8zm-34-.586v6.586h-6.586zm-10 30.586c0-3.309 2.691-6 6-6s6 2.691 6 6-2.691 6-6 6-6-2.691-6-6zm8.957 7.427c-.21 1.451-1.449 2.573-2.957 2.573s-2.747-1.122-2.957-2.573c.916.366 1.912.573 2.957.573s2.041-.207 2.957-.573zm5.165 5.037c-.724.724-1.122 1.685-1.122 2.707v10.829h-14v-12h-2v12h-3v-9c0-4.332 3.077-7.957 7.159-8.809.538 2.181 2.497 3.809 4.841 3.809 2.633 0 4.774-2.053 4.963-4.639 2.649-.652 5.111-2.022 7.043-3.954l5.408-5.407.586-.586 2.878-2.878c.346-.346.805-.536 1.293-.536 1.009 0 1.829.82 1.829 1.829 0 .488-.19.947-.536 1.293zm7.878-16.464h-2v-8h2zm6-3.983v-12.017h2v12.486c-.546-.3-1.163-.486-1.829-.486-.058 0-.114.014-.171.017zm6 13.983h-10.586l7.464-7.464c.724-.724 1.122-1.685 1.122-2.707v-17.829h-6v14.681c-.189.131-.37.275-.536.44l-1.464 1.465v-8.586h-6v12h2.586l-3.993 3.993c-1.202 1.202-2.641 2.152-4.206 2.804 1.008-1.339 1.613-2.996 1.613-4.797 0-.692-.097-1.359-.263-2h2.263v-18h-6v13.082c-1.178-.684-2.542-1.082-4-1.082s-2.822.398-4 1.082v-15.082h10v-10h22zm-22-11.274v-12.726h2v14h-1.082c-.265-.455-.572-.881-.918-1.274zm32 3.274h8v6h-8zm0-14h8v6h-8z"/><path d="m55 7h4v2h-4z"/><path d="m55 21h4v2h-4z"/><path d="m55 35h4v2h-4z"/><path d="m39 5h2v2h-2z"/><path d="m35 5h2v2h-2z"/><path d="m23 5h10v2h-10z"/><path d="m23 9h18v2h-18z"/><path d="m13 15h2v2h-2z"/><path d="m13 19h2v2h-2z"/><path d="m13 23h2v2h-2z"/></svg>