<?xml version="1.0" encoding="iso-8859-1"?>
<!-- Generator: Adobe Illustrator 19.0.0, SVG Export Plug-In . SVG Version: 6.00 Build 0)  -->
<svg version="1.1" id="Capa_1" xmlns="http://www.w3.org/2000/svg" xmlns:xlink="http://www.w3.org/1999/xlink" x="0px" y="0px"
	 viewBox="0 0 512 512" style="enable-background:new 0 0 512 512;" xml:space="preserve">
<circle style="fill:#FFCF4B;" cx="256" cy="256" r="256"/>
<path style="fill:#42495B;" d="M480.36,69.949V353.21H31.638V69.949c0-11.357,9.198-20.556,20.556-20.556h407.611
	C471.151,49.392,480.36,58.591,480.36,69.949z"/>
<path style="fill:#535B70;" d="M497.58,340.919c-8.338,23.74-20.083,45.871-34.649,65.829H49.068
	c-14.566-19.958-26.311-42.089-34.649-65.829H497.58z"/>
<path style="fill:#F9F9F9;" d="M454.531,88.074v226.461c0,5.559-4.503,10.062-10.062,10.062H67.532
	c-5.559,0-10.062-4.504-10.062-10.062V88.074c0-5.569,4.504-10.073,10.062-10.073h376.936
	C450.027,78.002,454.531,82.505,454.531,88.074z"/>
<path style="fill:#6E7789;" d="M316.91,374.356H195.09c-11.949,0-21.637-9.687-21.637-21.637v-11.8h165.094v11.8
	C338.547,364.668,328.86,374.356,316.91,374.356z"/>
<path style="fill:#51B0E0;" d="M367.577,202.176c0,2.456-0.084,4.901-0.24,7.314c-1.735,26.802-12.936,51.033-30.302,69.371
	c-3.354,3.563-6.949,6.886-10.762,9.968c-11.295,9.185-24.409,16.185-38.734,20.396c-10,2.947-20.584,4.524-31.535,4.524
	s-21.535-1.578-31.535-4.524c-14.326-4.2-27.449-11.212-38.745-20.396c-3.803-3.082-7.398-6.405-10.762-9.968
	c-17.356-18.338-28.557-42.569-30.292-69.371c-0.157-2.414-0.24-4.859-0.24-7.314s0.084-4.901,0.24-7.314
	c1.735-26.802,12.936-51.033,30.292-69.371c3.365-3.563,6.959-6.886,10.762-9.968c11.295-9.185,24.419-16.196,38.745-20.396
	c10-2.947,20.584-4.524,31.535-4.524s21.535,1.578,31.535,4.524c14.326,4.211,27.439,11.212,38.734,20.396
	c3.814,3.082,7.408,6.405,10.762,9.968c17.366,18.338,28.568,42.569,30.302,69.371C367.494,197.276,367.577,199.721,367.577,202.176
	z"/>
<path style="fill:#42A3CC;" d="M367.337,209.491c0.157-2.414,0.24-4.859,0.24-7.314s-0.084-4.901-0.24-7.314h-39.936
	c-0.7-19.487-4.18-38.087-10.104-54.45c7.095-4.284,13.709-9.289,19.738-14.921c-3.354-3.563-6.949-6.886-10.762-9.968
	c-4.556,4.169-9.498,7.941-14.743,11.264c-1.191-2.456-2.445-4.848-3.772-7.158c-5.893-10.24-12.737-18.484-20.219-24.503
	c-10-2.947-20.584-4.524-31.535-4.524c-10.951,0-21.535,1.578-31.535,4.524c-7.481,6.019-14.326,14.263-20.219,24.503
	c-1.327,2.309-2.581,4.702-3.783,7.158c-5.245-3.323-10.188-7.095-14.744-11.264c-3.803,3.082-7.398,6.405-10.762,9.968
	c6.029,5.622,12.654,10.627,19.749,14.921c-5.935,16.363-9.404,34.962-10.104,54.45h-39.936c-0.157,2.414-0.24,4.859-0.24,7.314
	s0.084,4.901,0.24,7.314h39.936c0.7,19.477,4.169,38.076,10.104,54.439c-7.095,4.294-13.72,9.3-19.749,14.932
	c3.365,3.563,6.959,6.886,10.762,9.968c4.556-4.169,9.498-7.941,14.744-11.264c1.202,2.456,2.456,4.848,3.783,7.158
	c5.893,10.24,12.737,18.484,20.219,24.503c10,2.947,20.584,4.524,31.535,4.524c10.951,0,21.535-1.578,31.535-4.524
	c7.481-6.019,14.326-14.263,20.219-24.503c1.327-2.309,2.581-4.702,3.772-7.158c5.245,3.323,10.188,7.095,14.743,11.264
	c3.814-3.082,7.408-6.405,10.762-9.968c-6.029-5.632-12.643-10.637-19.738-14.932c5.925-16.363,9.404-34.962,10.104-54.439
	L367.337,209.491L367.337,209.491z M248.689,305.538c-11.755-2.863-22.831-12.591-31.765-28.118
	c-1.254-2.173-2.435-4.451-3.563-6.781c10.909-4.911,22.821-8.004,35.328-8.871V305.538z M248.689,247.107
	c-14.482,0.888-28.275,4.368-40.908,10c-4.963-14.326-7.889-30.563-8.537-47.616h49.445L248.689,247.107L248.689,247.107z
	 M248.689,194.862h-49.445c0.648-17.053,3.574-33.301,8.537-47.616c12.633,5.622,26.425,9.112,40.908,9.989L248.689,194.862
	L248.689,194.862z M248.689,142.586c-12.507-0.878-24.419-3.96-35.328-8.871c1.128-2.33,2.309-4.608,3.563-6.781
	c8.934-15.527,20.01-25.255,31.765-28.129V142.586z M263.317,98.804c11.755,2.873,22.831,12.601,31.765,28.129
	c1.254,2.173,2.435,4.451,3.563,6.781c-10.919,4.911-22.821,7.993-35.328,8.871L263.317,98.804L263.317,98.804z M295.082,277.419
	c-8.934,15.527-20.01,25.255-31.765,28.118v-43.771c12.507,0.867,24.409,3.96,35.328,8.871
	C297.517,272.968,296.336,275.246,295.082,277.419z M304.225,257.107c-12.633-5.632-26.425-9.112-40.908-10v-37.616h49.445
	C312.104,226.543,309.188,242.781,304.225,257.107z M263.317,194.862v-37.627c14.482-0.878,28.275-4.368,40.908-9.989
	c4.963,14.315,7.879,30.563,8.537,47.616L263.317,194.862L263.317,194.862z"/>
<g>
</g>
<g>
</g>
<g>
</g>
<g>
</g>
<g>
</g>
<g>
</g>
<g>
</g>
<g>
</g>
<g>
</g>
<g>
</g>
<g>
</g>
<g>
</g>
<g>
</g>
<g>
</g>
<g>
</g>
</svg>
