<?xml version="1.0" standalone="no"?>
<!DOCTYPE svg PUBLIC "-//W3C//DTD SVG 20010904//EN"
 "http://www.w3.org/TR/2001/REC-SVG-20010904/DTD/svg10.dtd">
<svg version="1.0" xmlns="http://www.w3.org/2000/svg"
 width="801.000000pt" height="252.000000pt" viewBox="0 0 801.000000 252.000000"
 preserveAspectRatio="xMidYMid meet">

<g transform="translate(0.000000,252.000000) scale(0.100000,-0.100000)"
fill="#000000" stroke="none">
<path d="M0 1260 l0 -1260 4005 0 4005 0 0 1260 0 1260 -4005 0 -4005 0 0
-1260z m1734 1061 c62 -10 112 -24 118 -32 6 -9 7 -92 4 -214 -3 -110 -6 -371
-6 -580 l0 -380 -53 58 c-31 32 -62 57 -73 57 -11 0 -48 -22 -82 -50 -34 -27
-64 -50 -67 -50 -8 0 -6 1196 2 1203 10 11 39 8 157 -12z m-186 -607 c2 -558
4 -612 19 -618 16 -7 59 19 117 69 16 14 36 25 45 25 9 0 38 -27 64 -61 51
-64 76 -72 87 -29 4 14 8 279 9 590 1 310 4 566 6 569 3 2 22 -1 42 -7 21 -6
57 -16 81 -22 l42 -11 0 -939 c0 -846 -2 -940 -16 -940 -8 0 -23 4 -32 9 -23
12 -300 68 -372 75 -30 3 -143 9 -251 12 -279 10 -545 -16 -738 -72 -30 -9
-57 -12 -62 -7 -5 5 -8 419 -7 938 l3 929 45 13 c87 25 336 73 430 82 52 5
183 8 290 7 l195 -1 3 -611z m1532 605 c110 -10 394 -65 453 -88 l27 -11 0
-919 c0 -522 -4 -922 -9 -925 -5 -3 -80 5 -167 18 -397 61 -747 59 -1098 -5
-88 -16 -168 -29 -178 -29 -17 0 -18 44 -18 934 l0 934 73 16 c175 38 331 66
418 74 135 13 366 14 499 1z m-850 -21 c0 -4 -17 -10 -37 -14 -21 -4 -56 -13
-77 -21 -34 -11 -45 -11 -92 4 -91 30 -72 38 99 38 59 1 107 -3 107 -7z
m-1680 -1062 c0 -587 3 -907 10 -911 5 -3 56 5 112 19 185 45 284 57 518 63
272 6 456 -7 645 -46 190 -40 219 -51 223 -84 2 -15 -1 -27 -7 -27 -6 0 -54
11 -108 24 -397 100 -1026 100 -1393 1 -30 -8 -58 -15 -62 -15 -5 0 -8 420 -8
934 l0 935 23 4 c12 2 28 5 35 6 9 1 12 -186 12 -903z m3107 891 c1 -2 3 -417
3 -923 0 -870 -1 -919 -17 -917 -10 1 -52 7 -93 13 -246 34 -388 43 -675 44
-314 1 -440 -11 -696 -63 -49 -10 -92 -15 -95 -10 -10 17 7 47 29 52 107 27
378 69 496 78 226 17 576 -3 831 -46 74 -12 138 -21 143 -18 4 2 7 409 7 905
l0 901 32 -7 c17 -3 33 -8 35 -9z m-3210 -985 c3 -862 2 -902 -15 -902 -10 0
-27 6 -38 14 -19 14 -19 36 -22 882 l-2 867 22 24 c12 13 29 22 38 21 13 -3
15 -101 17 -906z m3301 892 l22 -15 0 -868 c0 -922 2 -891 -47 -906 l-23 -6 0
905 c0 967 -2 925 48 890z m2097 -63 c143 -65 210 -271 141 -436 -24 -55 -82
-122 -126 -145 -46 -24 -126 -26 -173 -6 -46 19 -101 79 -134 144 -24 49 -27
69 -28 147 0 78 4 98 28 150 65 139 181 197 292 146z m614 -12 c42 -25 49 -23
65 16 2 6 8 6 16 -1 7 -7 14 -54 17 -113 6 -95 5 -101 -13 -101 -14 0 -24 13
-36 48 -33 91 -104 152 -178 152 -36 0 -70 -31 -70 -64 0 -37 30 -67 142 -140
57 -38 117 -82 135 -99 70 -66 63 -196 -15 -255 -30 -23 -47 -28 -111 -30 -71
-3 -79 -2 -121 27 -47 31 -70 28 -70 -10 0 -11 -7 -19 -15 -19 -12 0 -15 21
-16 120 -1 66 -2 126 -3 133 -1 6 5 12 12 12 8 0 22 -24 32 -53 24 -69 53
-113 96 -151 29 -26 43 -31 85 -31 62 0 99 31 99 83 0 42 -12 53 -162 150
-137 89 -158 115 -158 198 0 67 27 114 80 142 47 24 132 18 189 -14z m983 4
c61 -27 67 -26 82 12 11 29 24 -21 29 -112 5 -87 4 -103 -9 -103 -8 0 -22 17
-31 38 -48 104 -110 162 -174 162 -73 0 -102 -58 -58 -114 12 -15 72 -60 134
-101 61 -40 121 -85 133 -100 66 -83 41 -207 -51 -257 -52 -28 -150 -24 -204
8 -48 28 -73 26 -73 -6 0 -11 -6 -20 -13 -20 -11 0 -16 30 -21 127 -6 123 -1
154 23 139 6 -4 11 -14 11 -23 0 -36 71 -159 106 -185 51 -38 124 -39 159 -3
27 26 33 71 13 98 -7 9 -69 54 -138 99 -146 97 -170 126 -170 205 0 74 22 117
73 142 56 28 108 26 179 -6z m-2839 -16 c49 -30 77 -73 77 -118 0 -47 -31 -86
-91 -113 l-47 -22 47 -17 c26 -9 60 -30 76 -47 26 -27 30 -39 30 -89 0 -46 -5
-63 -25 -88 -49 -61 -75 -67 -282 -71 -163 -3 -188 -2 -188 12 0 10 12 16 38
18 l37 3 0 260 0 260 -37 3 c-25 2 -38 8 -38 18 0 12 30 14 183 14 172 0 184
-1 220 -23z m637 0 c74 -39 100 -119 60 -185 -18 -29 -45 -47 -105 -68 -18 -6
-16 -8 10 -15 17 -5 44 -22 60 -39 27 -28 29 -37 33 -125 3 -65 8 -95 17 -99
21 -7 37 19 43 69 3 31 9 45 20 45 12 0 14 -10 9 -54 -6 -61 -21 -90 -54 -105
-32 -15 -57 -14 -97 3 -48 20 -66 66 -66 169 0 106 -18 137 -81 137 l-40 0 3
-132 3 -133 48 -3 c32 -2 47 -7 44 -15 -2 -8 -48 -13 -150 -15 -124 -2 -147 0
-147 12 0 9 12 16 33 18 l32 3 3 263 2 262 -35 0 c-24 0 -35 5 -35 15 0 13 26
15 173 15 162 0 177 -2 217 -23z m1778 11 c-3 -7 -21 -14 -41 -16 l-37 -3 2
-262 3 -262 38 -3 c24 -2 37 -8 34 -15 -2 -8 -47 -13 -145 -15 -122 -2 -142 0
-142 13 0 11 11 15 40 15 l40 0 0 264 0 265 -37 3 c-20 2 -38 9 -41 16 -3 9
30 12 143 12 113 0 146 -3 143 -12z m-2618 -1348 c0 -152 1 -160 19 -160 11 0
23 -4 26 -10 4 -6 -22 -10 -70 -10 -48 0 -74 4 -70 10 3 6 15 10 26 10 16 0
19 7 19 50 l0 50 -37 0 c-46 0 -55 -6 -82 -50 -26 -43 -26 -50 -1 -50 11 0 20
-4 20 -10 0 -6 -29 -10 -66 -10 -41 0 -63 4 -59 10 3 6 15 10 26 10 13 0 49
45 126 160 58 88 110 160 115 160 4 0 8 -72 8 -160z m2640 152 c0 -4 -11 -47
-25 -97 -13 -49 -22 -91 -20 -94 3 -2 5 1 5 7 0 22 52 72 76 72 34 0 41 -40
18 -109 -33 -99 -33 -101 -20 -101 7 0 21 16 32 35 22 42 38 47 23 8 -24 -63
-70 -83 -91 -38 -9 20 -7 35 11 82 34 86 36 103 17 103 -21 0 -70 -77 -98
-152 -12 -35 -27 -58 -35 -58 -19 0 -17 15 30 190 27 99 34 136 25 141 -7 4
-15 6 -19 3 -4 -2 -10 0 -14 6 -4 6 11 10 39 10 25 0 46 -3 46 -8z m490 5 c0
-1 -5 -18 -10 -37 -27 -89 -70 -259 -70 -274 0 -23 17 -11 41 28 10 17 19 24
19 16 0 -8 -9 -30 -20 -48 -15 -24 -27 -32 -43 -30 -34 5 -33 64 6 203 30 104
32 120 18 123 -39 9 -32 22 12 22 26 0 47 -1 47 -3z m-2436 -16 c10 -16 -5
-41 -24 -41 -20 0 -30 17 -22 38 5 14 38 16 46 3z m1602 -27 c-21 -81 -20 -84
10 -84 33 0 21 -17 -15 -22 -22 -3 -27 -12 -43 -73 -10 -38 -18 -78 -18 -87 0
-29 18 -20 40 20 l21 37 -6 -34 c-7 -45 -23 -63 -54 -59 -22 3 -26 9 -29 40
-2 20 4 62 12 94 14 53 14 59 -2 70 -16 12 -15 13 4 14 17 0 24 10 34 48 16
59 18 62 37 62 11 0 14 -6 9 -26z m-2016 -106 c13 -24 13 -29 0 -42 -10 -11
-20 -12 -30 -6 -12 8 -13 13 -2 30 10 17 10 21 -2 26 -23 9 -48 1 -60 -19 -9
-15 -4 -24 32 -57 47 -44 52 -65 21 -104 -38 -48 -129 -27 -129 31 0 27 26 41
43 24 8 -8 8 -14 -1 -23 -24 -24 -13 -38 27 -38 32 0 41 4 47 22 5 17 -1 28
-24 49 -31 28 -52 59 -52 79 0 6 11 22 25 36 34 34 83 30 105 -8z m212 15 c10
-9 18 -27 18 -40 0 -20 -4 -24 -22 -21 -13 2 -22 9 -20 16 1 6 3 18 5 25 4 20
-54 15 -67 -6 -9 -15 -4 -24 32 -55 48 -42 55 -75 22 -110 -25 -27 -85 -30
-112 -5 -22 20 -24 61 -2 70 22 8 35 -16 21 -38 -14 -23 -5 -32 33 -31 63 2
66 27 9 89 -31 33 -39 49 -34 66 15 51 80 74 117 40z m162 1 c11 -28 6 -62
-14 -114 -11 -28 -20 -57 -20 -65 0 -27 20 -16 37 20 9 19 20 35 25 35 14 0 9
-15 -15 -51 -16 -23 -31 -34 -47 -34 -35 0 -38 43 -9 127 13 37 20 71 15 75
-8 9 -45 -35 -46 -54 0 -7 -4 -13 -10 -13 -12 0 6 49 27 72 20 22 49 23 57 2z
m232 1 c6 -14 8 -13 20 2 9 13 16 15 24 7 7 -7 2 -44 -20 -130 -32 -123 -47
-157 -84 -186 -26 -21 -89 -23 -106 -3 -18 21 -8 50 19 53 21 3 23 1 17 -22
-8 -32 9 -42 38 -23 25 17 56 74 56 103 0 16 -1 16 -18 1 -41 -37 -92 -7 -92
52 1 75 63 161 117 161 13 0 26 -7 29 -15z m190 4 c4 -7 7 -26 6 -43 0 -28 1
-29 11 -12 42 70 99 87 106 31 2 -16 -7 -60 -20 -97 -13 -37 -20 -70 -16 -74
9 -9 47 34 47 53 0 7 5 13 10 13 16 0 12 -14 -13 -51 -16 -23 -31 -34 -47 -34
-23 0 -25 3 -24 50 0 28 9 71 19 97 21 51 17 65 -12 50 -19 -11 -93 -150 -93
-176 0 -17 -26 -33 -37 -23 -3 3 4 41 16 85 33 122 25 152 -20 78 -10 -17 -19
-24 -19 -16 0 17 27 60 44 72 16 11 34 10 42 -3z m294 -14 c5 -14 7 -33 3 -42
-3 -10 8 1 26 25 18 24 39 42 51 42 24 0 43 -33 35 -63 -5 -21 -5 -21 12 3 33
45 54 61 76 58 31 -4 34 -55 6 -134 -12 -35 -19 -67 -15 -71 9 -9 46 33 46 53
0 8 5 14 10 14 16 0 12 -14 -13 -51 -16 -23 -31 -34 -47 -34 -35 0 -38 43 -9
127 24 70 23 83 -4 72 -16 -6 -88 -137 -99 -182 -3 -12 -13 -22 -22 -22 -20 0
-20 -3 8 108 22 86 21 112 -5 96 -12 -7 -83 -149 -92 -183 -5 -20 -37 -31 -37
-13 0 5 9 44 20 87 11 43 20 87 20 98 0 17 -2 18 -16 6 -9 -7 -20 -24 -25 -37
-5 -14 -12 -22 -16 -19 -9 9 17 66 36 77 27 16 41 11 51 -15z m468 -9 c4 -35
-28 -72 -72 -82 -36 -8 -46 -19 -46 -57 0 -48 66 -50 88 -2 6 14 16 25 22 25
16 0 -17 -58 -39 -70 -47 -25 -91 -4 -104 50 -18 73 52 174 116 168 27 -2 33
-8 35 -32z m156 18 c3 -9 6 -25 6 -37 1 -22 1 -22 12 -2 19 33 51 56 73 53 29
-4 32 -64 6 -134 -12 -30 -21 -59 -21 -64 0 -22 22 -8 42 25 26 45 35 38 13
-9 -11 -23 -27 -39 -42 -42 -49 -13 -57 44 -17 137 26 63 25 81 -4 63 -26 -17
-60 -71 -83 -136 -23 -61 -35 -76 -50 -61 -5 5 2 47 17 102 14 51 22 96 19
100 -9 8 -45 -37 -45 -55 0 -8 -4 -14 -10 -14 -14 0 -13 6 6 43 25 48 65 64
78 31z m940 10 c24 -9 20 -57 -7 -82 -13 -12 -37 -25 -55 -28 -22 -5 -34 -14
-38 -29 -17 -67 33 -88 78 -34 18 21 28 28 28 18 0 -28 -47 -69 -78 -69 -83 0
-94 131 -17 199 35 31 58 37 89 25z m331 -14 l6 -20 26 20 c52 41 93 16 93
-56 0 -57 -20 -105 -55 -132 -34 -27 -80 -29 -90 -4 -6 13 -11 9 -21 -23 -22
-68 -18 -83 19 -88 17 -2 -4 -4 -48 -4 -46 -1 -69 2 -55 6 22 6 28 20 57 126
44 164 46 175 34 175 -6 0 -20 -18 -31 -41 -21 -41 -37 -48 -26 -11 19 60 78
93 91 52z m-6000 -334 c122 -17 265 -45 265 -52 0 -2 -311 -4 -692 -4 -382 0
-688 4 -683 9 13 11 145 36 265 51 52 6 102 13 110 15 44 11 626 -4 735 -19z
m1620 0 c220 -24 319 -39 330 -48 5 -4 -310 -8 -700 -8 -418 0 -704 4 -695 9
8 5 80 19 160 30 80 12 174 25 210 30 92 14 528 5 695 -13z"/>
<path d="M5717 1949 c-39 -23 -47 -68 -47 -277 0 -191 1 -200 23 -233 19 -29
29 -34 68 -37 57 -4 86 18 99 73 12 52 12 348 0 400 -16 70 -87 106 -143 74z"/>
<path d="M4404 1926 c-3 -8 -4 -59 -2 -113 l3 -98 46 -3 c66 -4 91 19 97 91 8
105 -12 137 -89 137 -34 0 -51 -5 -55 -14z"/>
<path d="M4407 1673 c-8 -12 -8 -228 -1 -246 7 -20 55 -23 101 -7 39 14 53 46
53 126 0 74 -18 119 -52 128 -32 8 -96 7 -101 -1z"/>
<path d="M5050 1825 l0 -115 39 0 c59 0 83 25 89 93 8 102 -13 137 -84 137
l-44 0 0 -115z"/>
<path d="M4313 625 l-33 -50 31 -3 c17 -2 33 -1 36 1 2 3 3 27 1 53 l-3 48
-32 -49z"/>
<path d="M5208 583 c-12 -26 -23 -69 -26 -95 -4 -43 -2 -48 16 -48 27 0 56 38
71 93 17 60 12 91 -17 95 -18 3 -26 -5 -44 -45z"/>
<path d="M6156 606 c-35 -54 -6 -77 40 -31 29 29 27 49 -3 53 -13 2 -26 -6
-37 -22z"/>
<path d="M7272 617 c-6 -7 -15 -25 -21 -40 -9 -23 -8 -27 7 -27 29 0 62 29 62
56 0 27 -29 34 -48 11z"/>
<path d="M7712 623 c-17 -7 -40 -52 -52 -106 -12 -56 -5 -79 24 -75 24 3 55
60 67 122 10 59 0 75 -39 59z"/>
</g>
</svg>
